{"title":"Almost Human S01E04 HDTV 480p x264 - VYTO [P2PDL]","uid":9289539,"size":146479858,"categoryP":"video","categoryS":"tv_shows","magnet":"?xt=urn:btih:de9a2fd184f60d59333a648ae6e6543b6bc3f7d2&amp;dn=Almost+Human+S01E04+HDTV+480p+x264+-+VYTO+%5BP2PDL%5D&amp;tr=udp%3A%2F%2Ftracker.openbittorrent.com%3A80&amp;tr=udp%3A%2F%2Fopen.demonii.com%3A1337&amp;tr=udp%3A%2F%2Ftracker.coppersurfer.tk%3A6969&amp;tr=udp%3A%2F%2Fexodus.desync.com%3A6969","seeders":1,"leechers":0,"uploader":"Vitamin_X","files":-1,"time":1386065398,"description":"_______ Visit us at our Semi Public Bittorrent Community ________\n  &lt;a href=&quot;\nhttp://p2pdl.com&quot; rel=&quot;nofollow&quot; target=&quot;_NEW&quot;&gt;\nhttp://p2pdl.com&lt;/a&gt;  _____________________________ &lt;a href=&quot; http://p2pdl.com&quot; rel=&quot;nofollow&quot; target=&quot;_NEW&quot;&gt; http://p2pdl.com&lt;/a&gt;\n\n\nAlmost Human S01E04 HDTV 480p x264 - VYTO\n\n\nAlmost Human S01E04 (The Bends) \n &lt;a href=&quot;\nhttp://www.imdb.com/title/tt3307790/&quot; rel=&quot;nofollow&quot; target=&quot;_NEW&quot;&gt;\nhttp://www.imdb.com/title/tt3307790/&lt;/a&gt;\n\nRudy the lab geek freaks out in a lab, trying to \nfigure out what to do. Voices off screen worry about \nnot being able to reach someone. Rudy ponders his \noptions, then flips a lever to release a gas and runs. \nMen chase after him.\n\n\nGeneral\nFormat                         : MPEG-4\nFile size                      : 135 MiB\nDuration                       : 41mn 27s\nOverall bit rate mode          : Variable\nOverall bit rate               : 457 Kbps\n\nVideo\nFormat                         : AVC\nBit rate                       : 414 Kbps\nWidth                          : 720 pixels\nHeight                         : 400 pixels\nDisplay aspect ratio           : 16:9\nFrame rate mode                : Constant\nFrame rate                     : 23.976 fps\nBit depth                      : 10 bits\nStream size                    : 123 MiB (91%)\nWriting library                : x264 core 140 r2377 1ca7bb9\n\nAudio\nFormat                         : AAC\nBit rate                       : 40.0 Kbps\nChannel count                  : 2 channels\nChannel positions              : Front: L R\nSampling rate                  : 48.0 KHz / 24.0 KHz\nStream size                    : 11.9 MiB (9%)\n\nSubtitle                       : N/a\n\nSource                         : 720p.HDTV.X264-DIMENSION\n\nScreenshots: &lt;a href=&quot;\nhttp://ultraimg.com/images/Jd1a6.png&quot; rel=&quot;nofollow&quot; target=&quot;_NEW&quot;&gt;\nhttp://ultraimg.com/images/Jd1a6.png&lt;/a&gt; &lt;a href=&quot;\nhttp://ultraimg.com/images/yqjXb.png&quot; rel=&quot;nofollow&quot; target=&quot;_NEW&quot;&gt;\nhttp://ultraimg.com/images/yqjXb.png&lt;/a&gt; &lt;a href=&quot;\nhttp://ultraimg.com/images/Ue7oq.png&quot; rel=&quot;nofollow&quot; target=&quot;_NEW&quot;&gt;\nhttp://ultraimg.com/images/Ue7oq.png&lt;/a&gt; &lt;a href=&quot;\nhttp://ultraimg.com/images/djAce.png&quot; rel=&quot;nofollow&quot; target=&quot;_NEW&quot;&gt;\nhttp://ultraimg.com/images/djAce.png&lt;/a&gt; &lt;a href=&quot;\nhttp://ultraimg.com/images/v3tf4.png&quot; rel=&quot;nofollow&quot; target=&quot;_NEW&quot;&gt;\nhttp://ultraimg.com/images/v3tf4.png&lt;/a&gt;\n\n----------------------------------------------------------------------------------------------------\n\n\nEncoded using revolutionary 10bit encoding, which enables us to provide you more crispier \nand sharper images at small sizes, just make sure you follow our instructions without a fault.\nRecommend to you to use latest version of VLC player. Install K-Lite Codec Pack or shark007 codecs\nin case of any kind of problem in playback (For non-VLC Media Player users). Alternatively, install\nCore AVC codecs, the fastest decoder that there is coupled with Community Center Codec Pack and play\non Windows Media Player Classic. Check sample to be sure.\nEnjoy!\n\nEncoder Notes:Looking For Early Access To Anything You Can Provide DVDScr, R5, DVDR, BluRay, Direct\nAudio, Music Releases and Seedboxes. We require dedicated servers, so as to do more \nand fast releases of movies.\nIf You Got anything to offer please contact us at &quot;&lt;a class=&quot;__cf_email__&quot; href=&quot;/cdn-cgi/l/email-protection&quot; data-cfemail=&quot;14646673547c61677c3a777b79&quot;&gt;[email&amp;#160;protected]&lt;/a&gt;&lt;script cf-hash='f9e31' type=&quot;text/javascript&quot;&gt;\n/* &lt;![CDATA[ */!function(){try{var t=&quot;currentScript&quot;in document?document.currentScript:function(){for(var t=document.getElementsByTagName(&quot;script&quot;),e=t.length;e--;)if(t[e].getAttribute(&quot;cf-hash&quot;))return t[e]}();if(t&amp;&amp;t.previousSibling){var e,r,n,i,c=t.previousSibling,a=c.getAttribute(&quot;data-cfemail&quot;);if(a){for(e=&quot;&quot;,r=parseInt(a.substr(0,2),16),n=2;a.length-n;n+=2)i=parseInt(a.substr(n,2),16)^r,e+=String.fromCharCode(i);e=document.createTextNode(e),c.parentNode.replaceChild(e,c)}}}catch(u){}}();/* ]]&gt; */&lt;/script&gt;&quot;.\n\nFacebook Fan Page:  \nSearch P2PDL on FB and don't forget to hit like!!!\n\nSupport us, please consider a donation.\n\nFor more of our team uploads visit @            &lt;a href=&quot;\nhttp://thepiratebay.se/user/varuttee&quot; rel=&quot;nofollow&quot; target=&quot;_NEW&quot;&gt;\nhttp://thepiratebay.se/user/varuttee&lt;/a&gt;\t","torrent":{"xt":"urn:btih:de9a2fd184f60d59333a648ae6e6543b6bc3f7d2","amp;dn":"Almost+Human+S01E04+HDTV+480p+x264+-+VYTO+%5BP2PDL%5D","amp;tr":["udp%3A%2F%2Ftracker.openbittorrent.com%3A80","udp%3A%2F%2Fopen.demonii.com%3A1337","udp%3A%2F%2Ftracker.coppersurfer.tk%3A6969","udp%3A%2F%2Fexodus.desync.com%3A6969"],"infoHash":"de9a2fd184f60d59333a648ae6e6543b6bc3f7d2","infoHashBuffer":{"type":"Buffer","data":[222,154,47,209,132,246,13,89,51,58,100,138,230,230,84,59,107,195,247,210]},"announce":[],"urlList":[]}}